Coordinates
version=1
nRows=14
nColumns=42
inDegrees=yes

Units are S.I. units (second, meters, Newtons, ...)
If the header above contains a line with 'inDegrees', this indicates whether rotational values are in degrees (yes) or radians (no).

endheader
time	pelvis_tilt	pelvis_list	pelvis_rotation	pelvis_tx	pelvis_ty	pelvis_tz	hip_flexion_r	hip_adduction_r	hip_rotation_r	knee_angle_r	knee_adduction_r	knee_angle_r_beta	ankle_angle_r	subtalar_angle_r	mtp_angle_r	hip_flexion_l	hip_adduction_l	hip_rotation_l	knee_angle_l	knee_adduction_l	knee_angle_l_beta	ankle_angle_l	subtalar_angle_l	mtp_angle_l	lumbar_extension	lumbar_bending	lumbar_rotation	arm_flex_r	arm_add_r	arm_rot_r	elbow_flex_r	pro_sup_r	wrist_flex_r	wrist_dev_r	arm_flex_l	arm_add_l	arm_rot_l	elbow_flex_l	pro_sup_l	wrist_flex_l	wrist_dev_l
      0.50000000	     20.36888012	     -0.22619568	      2.66176360	     -0.43403660	      0.93327677	     -0.17598463	     -4.91695952	      3.11149328	    -12.48615438	     29.30536095	     -2.88613752	      0.51147504	     13.10857834	     19.65640891	     -9.06912644	    -29.48328150	      3.10326788	     -5.95641873	     25.95077090	     -0.23068262	      0.45292640	     20.63232991	     -8.52912037	     -9.06912644	    -33.14221805	     -1.81053816	      3.12282607	      5.94004220	    -11.02216132	    -34.02387514	     23.84192016	     90.00000001	      0.00000000	      0.00000000	     -2.08260336	    -19.58629257	      1.17994493	     69.70117927	     90.00000001	      0.00000000	      0.00000000
      0.51000000	     20.49008805	      0.05809199	      2.33161148	     -0.42859747	      0.93478284	     -0.17485517	     -5.80599372	      2.76913769	    -12.98367545	     28.58198297	     -2.93680480	      0.49884971	     13.24089820	     19.89612961	     -9.06194899	    -29.46489854	      3.09027204	     -5.97544414	     27.05432387	      0.55471036	      0.47218703	     19.92688312	     -8.43173618	     -9.06194899	    -33.26231246	     -2.30070280	      3.23312201	      6.42508214	    -10.95744201	    -33.96011659	     24.05180656	     90.00000001	      0.00000000	      0.00000000	     -1.97077137	    -19.62702076	      1.08510114	     69.67567972	     90.00000001	      0.00000000	      0.00000000
      0.52000000	     20.76257169	      0.00765358	      2.50962483	     -0.42281750	      0.93641241	     -0.17426029	     -6.92948358	      2.93842636	    -16.23263323	     27.23613696	     -4.34012838	      0.47536027	     13.41189089	     25.71134121	     -8.94102046	    -29.39371845	      2.51346644	     -5.70171492	     28.71309455	      1.18328167	      0.50113804	     18.29465496	     -9.74838279	     -8.94102046	    -33.47754218	     -2.20256861	      2.99689338	      6.77989452	    -10.86453690	    -33.17549458	     24.62972238	     90.00000001	      0.00000000	      0.00000000	     -2.04523901	    -19.69431530	      0.83171107	     69.88108973	     90.00000001	      0.00000000	      0.00000000
      0.53000000	     20.98294875	      0.07639712	      2.41446708	     -0.41734127	      0.93803849	     -0.17333755	     -7.99982178	      2.89526606	    -17.74046298	     26.10212648	     -4.77545472	      0.45556805	     13.24527212	     28.22714950	     -8.86647138	    -29.25648168	      2.10072967	     -5.47804396	     30.30343441	      2.05954043	      0.52889471	     16.92282773	    -10.55439641	     -8.86647138	    -33.68105807	     -2.35750764	      2.98262112	      7.18224490	    -10.80610792	    -32.47525015	     25.15267426	     90.00000001	      0.00000000	      0.00000000	     -2.00807883	    -19.72887459	      0.66762302	     70.04106535	     90.00000001	      0.00000000	      0.00000000
      0.54000000	     21.18228098	      0.21874126	      2.41250412	     -0.41202585	      0.93962200	     -0.17268640	     -9.09432400	      2.69741342	    -18.65527558	     25.05697886	     -4.63134371	      0.43732678	     13.29431332	     29.36884349	     -8.84623199	    -28.96183307	      1.76869164	     -5.27480429	     32.07700201	      2.69955881	      0.55984930	     15.68354985	    -10.88670772	     -8.84623199	    -33.88704844	     -2.52021098	      2.83561119	      7.70110677	    -10.70791362	    -32.16946594	     25.61191482	     90.00000001	      0.00000000	      0.00000000	     -1.97861969	    -19.80901473	      0.55716768	     70.22171935	     90.00000001	      0.00000000	      0.00000000
      0.55000000	     21.32572977	      0.50770734	      2.22293406	     -0.40691078	      0.94107760	     -0.17173390	    -10.01125821	      2.34672926	    -19.33204979	     24.24111046	     -4.58167420	      0.42308719	     13.26935999	     30.16530651	     -8.83680184	    -28.56811327	      1.58643290	     -5.00326872	     33.85379510	      3.58508448	      0.59086019	     14.72523357	    -11.03193517	     -8.83680184	    -34.06748735	     -2.95150309	      2.85605691	      8.23585639	    -10.60498423	    -31.92280051	     25.97547820	     90.00000001	      0.00000000	      0.00000000	     -1.79767275	    -19.83228774	      0.43564737	     70.31518298	     90.00000001	      0.00000000	      0.00000000
      0.56000000	     21.31238540	      0.59624862	      2.43732678	     -0.40161695	      0.94204291	     -0.17164063	    -10.64304749	      2.22112453	    -22.24996275	     23.32958946	     -5.36869447	      0.40717815	     13.09069710	     34.86547019	     -8.73695292	    -27.77610274	      1.09478668	     -4.39364605	     36.06867565	      4.39998118	      0.62951715	     13.12707852	    -13.13674401	     -8.73695292	    -34.05073138	     -2.91703207	      2.53552137	      8.36176696	    -10.71146831	    -29.51011869	     26.99341858	     90.00000001	      0.00000000	      0.00000000	     -1.90243838	    -19.80274247	      0.20499260	     70.63508758	     90.00000001	      0.00000000	      0.00000000
      0.57000000	     21.26099505	      0.63274524	      2.52999050	     -0.39679950	      0.94297354	     -0.17105947	    -11.30836112	      2.23194979	    -22.67485825	     22.53565270	     -5.18288116	      0.39332134	     12.94496929	     35.40712762	     -8.70740642	    -26.78475634	      0.54333344	     -4.26157737	     38.45268061	      5.00191636	      0.67112588	     12.21567095	    -13.60784382	     -8.70740642	    -34.05260225	     -2.94037436	      2.40882122	      8.90906228	    -10.63295918	    -28.94977605	     27.55454806	     90.00000001	      0.00000000	      0.00000000	     -1.78820089	    -19.81065824	      0.07221090	     70.83508684	     90.00000001	      0.00000000	      0.00000000
      0.58000000	     21.11584438	      0.73517085	      2.69599891	     -0.39209932	      0.94370428	     -0.17082962	    -11.85065127	      2.10281942	    -23.01304329	     21.84061564	     -4.78383226	      0.38119065	     12.90468930	     35.83458916	     -8.68514584	    -25.62270894	      0.08236580	     -4.01637208	     40.80421178	      5.49261597	      0.71216784	     11.49535221	    -14.04964494	     -8.68514584	    -33.99531270	     -2.96562606	      2.18780586	      9.46135477	    -10.58710332	    -28.42350673	     28.13352629	     90.00000001	      0.00000000	      0.00000000	     -1.70144370	    -19.80861280	     -0.02697057	     71.00475828	     90.00000001	      0.00000000	      0.00000000
      0.59000000	     20.97489973	      0.87413450	      2.84861069	     -0.38752173	      0.94435036	     -0.17067902	    -12.34021226	      1.94858056	    -23.18671284	     21.25678753	     -4.42411479	      0.37100093	     12.88465279	     36.09438532	     -8.66735699	    -24.41518373	     -0.30901146	     -3.81265206	     43.05618462	      5.89152912	      0.75147218	     10.98417305	    -14.49728084	     -8.66735699	    -33.96601647	     -3.01619048	      2.01302043	     10.02947302	    -10.56865831	    -27.92057852	     28.69841664	     90.00000001	      0.00000000	      0.00000000	     -1.56672703	    -19.76384142	     -0.10523143	     71.19657215	     90.00000001	      0.00000000	      0.00000000
      0.60000000	     20.69872814	      0.78505711	      3.06609487	     -0.38286445	      0.94460169	     -0.17026057	    -12.61177816	      2.13592633	    -23.33346277	     20.74761570	     -4.23150159	      0.36211421	     12.79626803	     36.27811868	     -8.64402757	    -22.96073584	     -0.99913759	     -3.79351514	     45.38749842	      6.13956513	      0.79216129	     10.64780042	    -15.39469339	     -8.64402757	    -33.74634020	     -2.88424285	      1.85593787	     10.54273548	    -10.52627016	    -27.08491067	     29.34299295	     90.00000001	      0.00000000	      0.00000000	     -1.49563716	    -19.72766558	     -0.22717593	     71.40869133	     90.00000001	      0.00000000	      0.00000000
      0.61000000	     20.51007858	      0.85942960	      3.24084444	     -0.37841514	      0.94496994	     -0.17016723	    -12.96568552	      2.09081832	    -23.21720077	     20.31716991	     -3.88287451	      0.35460151	     12.84543491	     36.24576554	     -8.62262634	    -21.60810383	     -1.40427397	     -3.73411444	     47.40975115	      6.24506026	      0.82745626	     10.55610977	    -15.96420959	     -8.62262634	    -33.68531356	     -2.86478011	      1.70883304	     11.08613395	    -10.52296297	    -26.26377552	     29.97250440	     90.00000001	      0.00000000	      0.00000000	     -1.35403161	    -19.65875894	     -0.27436953	     71.59196599	     90.00000001	      0.00000000	      0.00000000
      0.62000000	     20.30142453	      0.88491017	      3.40745880	     -0.37396340	      0.94521120	     -0.17006602	    -13.25043808	      2.13177486	    -22.92365953	     19.95944967	     -3.61406364	      0.34835811	     12.90225796	     35.97821030	     -8.59899473	    -20.22291867	     -1.86092395	     -3.84672178	     49.21950175	      6.19586746	      0.85904236	     10.67249701	    -16.48186646	     -8.59899473	    -33.58201789	     -2.79776060	      1.59232774	     11.62213045	    -10.57725985	    -25.28728143	     30.64127020	     90.00000001	      0.00000000	      0.00000000	     -1.20890455	    -19.58290454	     -0.30085292	     71.78495563	     90.00000001	      0.00000000	      0.00000000
      0.63000000	     20.16140124	      1.01252259	      3.56022721	     -0.36958532	      0.94559534	     -0.17010257	    -13.62586180	      2.02509393	    -22.51192079	     19.62131821	     -3.23087618	      0.34245661	     13.02693874	     35.66535256	     -8.58084686	    -18.93454410	     -2.11181558	     -3.94638457	     50.66025414	      5.91663684	      0.88418823	     11.02486823	    -16.84872794	     -8.58084686	    -33.59571086	     -2.82441662	      1.45877978	     12.19879794	    -10.61302184	    -24.53156042	     31.23824198	     90.00000001	      0.00000000	      0.00000000	     -1.02625070	    -19.50402812	     -0.26131331	     71.95977925	     90.00000001	      0.00000000	      0.00000000
